<svg width="16" height="18" viewBox="0 0 16 18" fill="none" xmlns="http://www.w3.org/2000/svg">
<path fill-rule="evenodd" clip-rule="evenodd" d="M8.02432 0.666668C4.18347 0.653619 1.04624 3.70942 0.920849 7.53442L0.916992 7.77184C0.980833 9.64669 1.61872 11.4339 2.74223 12.9063L3.00609 13.2507C4.07849 14.6142 5.35292 15.8111 6.78389 16.7975L7.12842 17.0295L7.1787 17.069C7.66916 17.4214 8.33137 17.4214 8.82184 17.069L8.86368 17.0346C9.99912 16.2982 11.0462 15.433 11.984 14.456C13.8908 12.4376 15.0401 10.176 15.0835 7.87911L15.0836 7.79383C15.0966 3.94323 12.0502 0.796351 8.23696 0.670535L8.02432 0.666668ZM8.02004 1.93117C11.1688 1.94194 13.7253 4.4578 13.8203 7.59088L13.8229 7.86713C13.7865 9.79281 12.7782 11.777 11.0725 13.5826C10.2028 14.4885 9.22761 15.2938 8.16996 15.9787L8.09947 16.0317C8.04251 16.0811 7.95802 16.0811 7.90106 16.0317L7.83255 15.9799C6.25697 14.9513 4.87413 13.6525 3.7473 12.143C2.83964 10.9534 2.30179 9.53111 2.19353 8.04736L2.17762 7.74984C2.18832 4.59346 4.69643 2.0291 7.81987 1.93388L8.02004 1.93117ZM8.00027 5.1677C6.50994 5.1677 5.30179 6.37958 5.30179 7.87451C5.30179 9.36944 6.50994 10.5813 8.00027 10.5813C9.49059 10.5813 10.6987 9.36944 10.6987 7.87451C10.6987 6.37958 9.49059 5.1677 8.00027 5.1677ZM8.00027 6.43222C8.79437 6.43222 9.43811 7.07796 9.43811 7.87451C9.43811 8.67106 8.79437 9.31679 8.00027 9.31679C7.20616 9.31679 6.56242 8.67106 6.56242 7.87451C6.56242 7.07796 7.20616 6.43222 8.00027 6.43222Z" fill="#0A1B3D"/>
</svg>
